<svg width="29" height="28" viewBox="0 0 29 28" fill="none" xmlns="http://www.w3.org/2000/svg">
<g id="activity-outline">
<path id="Vector (Stroke)" fill-rule="evenodd" clip-rule="evenodd" d="M16.4337 3.5019C16.9436 3.47286 17.4131 3.77884 17.5924 4.25704L20.8086 12.8333H24.6667C25.3111 12.8333 25.8334 13.3557 25.8334 14C25.8334 14.6443 25.3111 15.1667 24.6667 15.1667H20.0001C19.5137 15.1667 19.0784 14.865 18.9077 14.4097L16.7232 8.5844L12.9652 23.6163C12.8414 24.1118 12.4096 24.4691 11.8997 24.4981C11.3898 24.5272 10.9203 24.2212 10.741 23.743L7.52489 15.1667H3.66673C3.0224 15.1667 2.50006 14.6443 2.50006 14C2.50006 13.3557 3.0224 12.8333 3.66673 12.8333H8.3334C8.81971 12.8333 9.25502 13.135 9.42578 13.5904L11.6103 19.4156L15.3682 4.38372C15.4921 3.88825 15.9238 3.53094 16.4337 3.5019Z" fill="#1F2937"/>
</g>
</svg>
