<svg width="28" height="28" viewBox="0 0 28 28" fill="none" xmlns="http://www.w3.org/2000/svg">
<g id="bank-outline">
<path id="Vector (Stroke)" fill-rule="evenodd" clip-rule="evenodd" d="M2.33337 24.5C2.33337 23.8557 2.85571 23.3333 3.50004 23.3333H24.5C25.1444 23.3333 25.6667 23.8557 25.6667 24.5C25.6667 25.1443 25.1444 25.6667 24.5 25.6667H3.50004C2.85571 25.6667 2.33337 25.1443 2.33337 24.5Z" fill="#1F2937"/>
<path id="Vector (Stroke)_2" fill-rule="evenodd" clip-rule="evenodd" d="M2.33337 11.6667C2.33337 11.0223 2.85571 10.5 3.50004 10.5H24.5C25.1444 10.5 25.6667 11.0223 25.6667 11.6667C25.6667 12.311 25.1444 12.8333 24.5 12.8333H3.50004C2.85571 12.8333 2.33337 12.311 2.33337 11.6667Z" fill="#1F2937"/>
<path id="Vector (Stroke)_3" fill-rule="evenodd" clip-rule="evenodd" d="M13.5404 2.42767C13.8339 2.3019 14.1661 2.3019 14.4596 2.42767L22.6263 5.92767C23.2185 6.18149 23.4928 6.86735 23.239 7.45958C22.9852 8.05182 22.2993 8.32616 21.7071 8.07235L14 4.76931L6.29292 8.07235C5.70069 8.32616 5.01483 8.05182 4.76101 7.45958C4.5072 6.86735 4.78154 6.18149 5.37378 5.92767L13.5404 2.42767Z" fill="#1F2937"/>
<path id="Vector (Stroke)_4" fill-rule="evenodd" clip-rule="evenodd" d="M4.66667 10.5C5.311 10.5 5.83333 11.0223 5.83333 11.6667V24.5C5.83333 25.1443 5.311 25.6667 4.66667 25.6667C4.02233 25.6667 3.5 25.1443 3.5 24.5V11.6667C3.5 11.0223 4.02233 10.5 4.66667 10.5Z" fill="#1F2937"/>
<path id="Vector (Stroke)_5" fill-rule="evenodd" clip-rule="evenodd" d="M23.3333 10.5C23.9776 10.5 24.5 11.0223 24.5 11.6667V24.5C24.5 25.1443 23.9776 25.6667 23.3333 25.6667C22.689 25.6667 22.1666 25.1443 22.1666 24.5V11.6667C22.1666 11.0223 22.689 10.5 23.3333 10.5Z" fill="#1F2937"/>
<path id="Vector (Stroke)_6" fill-rule="evenodd" clip-rule="evenodd" d="M9.33329 15.1667C9.97762 15.1667 10.5 15.689 10.5 16.3333V19.8333C10.5 20.4777 9.97762 21 9.33329 21C8.68896 21 8.16663 20.4777 8.16663 19.8333V16.3333C8.16663 15.689 8.68896 15.1667 9.33329 15.1667Z" fill="#1F2937"/>
<path id="Vector (Stroke)_7" fill-rule="evenodd" clip-rule="evenodd" d="M14 15.1667C14.6444 15.1667 15.1667 15.689 15.1667 16.3333V19.8333C15.1667 20.4777 14.6444 21 14 21C13.3557 21 12.8334 20.4777 12.8334 19.8333V16.3333C12.8334 15.689 13.3557 15.1667 14 15.1667Z" fill="#1F2937"/>
<path id="Vector (Stroke)_8" fill-rule="evenodd" clip-rule="evenodd" d="M18.6667 15.1667C19.311 15.1667 19.8333 15.689 19.8333 16.3333V19.8333C19.8333 20.4777 19.311 21 18.6667 21C18.0223 21 17.5 20.4777 17.5 19.8333V16.3333C17.5 15.689 18.0223 15.1667 18.6667 15.1667Z" fill="#1F2937"/>
</g>
</svg>
