<svg width="28" height="28" viewBox="0 0 28 28" fill="none" xmlns="http://www.w3.org/2000/svg">
<g id="bell-outline">
<path id="vector" fill-rule="evenodd" clip-rule="evenodd" d="M11.6571 22.6277C12.1637 22.3338 12.8127 22.5062 13.1067 23.0129C13.1999 23.1736 13.3337 23.307 13.4947 23.3998C13.6557 23.4925 13.8383 23.5413 14.0241 23.5413C14.2099 23.5413 14.3924 23.4925 14.5534 23.3998C14.7144 23.307 14.8482 23.1736 14.9415 23.0129C15.2354 22.5062 15.8844 22.3338 16.3911 22.6277C16.8977 22.9216 17.0702 23.5706 16.7763 24.0773C16.4966 24.5594 16.0951 24.9596 15.6121 25.2378C15.1291 25.5161 14.5815 25.6625 14.0241 25.6625C13.4667 25.6625 12.919 25.5161 12.436 25.2378C11.953 24.9596 11.5515 24.5594 11.2718 24.0773C10.9779 23.5706 11.1504 22.9216 11.6571 22.6277Z" fill="#E8FCF0"/>
<path id="vector_2" fill-rule="evenodd" clip-rule="evenodd" d="M8.77447 4.50785C10.1668 3.11557 12.0551 2.33339 14.0241 2.33337C16.0977 2.33339 18.0864 3.11557 19.5526 4.50785C21.0189 5.90014 21.8426 7.7885 21.8426 9.7575C21.8426 12.6999 22.3912 14.7181 22.9965 16.0524C24.635 19.3028 22.4431 20.3634 20.3875 20.3634H14.0241H7.9817C6.02985 20.3634 3.94856 19.3028 5.50433 16.0524C6.0791 14.7181 6.6 12.6999 6.6 9.7575C6.6 7.7885 7.38218 5.90014 8.77447 4.50785ZM14.0241 18.2422H20.3591C21.2842 18.2422 21.1274 17.2939 20.9449 16.8916C20.2061 15.2631 19.6088 12.9549 19.6088 9.7575C19.6088 8.35107 19.0204 7.00224 17.973 6.00775C16.9257 5.01326 15.5052 4.45456 14.0241 4.45455C12.6177 4.45456 11.2689 5.01326 10.2744 6.00775C9.27988 7.00224 8.72117 8.35107 8.72117 9.7575C8.72117 12.9549 8.15397 15.2631 7.45244 16.8916C7.27914 17.2939 7.13024 18.2422 8.0087 18.2422H14.0241Z" fill="#E8FCF0"/>
</g>
</svg>
