<svg width="43" height="42" viewBox="0 0 43 42" fill="none" xmlns="http://www.w3.org/2000/svg">
<g id="trending-down-outline">
<path id="Vector (Stroke)" fill-rule="evenodd" clip-rule="evenodd" d="M4.26256 11.0126C4.94598 10.3291 6.05402 10.3291 6.73744 11.0126L16 20.2751L21.7626 14.5126C22.446 13.8291 23.554 13.8291 24.2374 14.5126L38.2374 28.5126C38.9209 29.196 38.9209 30.304 38.2374 30.9874C37.554 31.6709 36.446 31.6709 35.7626 30.9874L23 18.2249L17.2374 23.9874C16.554 24.6709 15.446 24.6709 14.7626 23.9874L4.26256 13.4874C3.57915 12.804 3.57915 11.696 4.26256 11.0126Z" fill="#EF4444"/>
<path id="Vector (Stroke)_2" fill-rule="evenodd" clip-rule="evenodd" d="M37 15.75C37.9665 15.75 38.75 16.5335 38.75 17.5V29.75C38.75 30.7165 37.9665 31.5 37 31.5H24.75C23.7835 31.5 23 30.7165 23 29.75C23 28.7835 23.7835 28 24.75 28H35.25V17.5C35.25 16.5335 36.0335 15.75 37 15.75Z" fill="#EF4444"/>
</g>
</svg>
