<svg width="198" height="38" viewBox="0 0 198 38" fill="none" xmlns="http://www.w3.org/2000/svg">
<path d="M197.042 13.0203L188.618 32.8309H184.959L187.906 26.1303L182.454 13.0203H186.31L189.822 22.4158L193.383 13.0203H197.042Z" fill="white"/>
<path d="M177.324 26.6888C176.21 26.6888 175.212 26.4945 174.327 26.1061C173.443 25.7015 172.739 25.1593 172.215 24.4795C171.708 23.7997 171.43 23.0471 171.38 22.2217H174.843C174.909 22.7396 175.162 23.1685 175.605 23.5084C176.063 23.8483 176.628 24.0182 177.299 24.0182C177.954 24.0182 178.461 23.8887 178.822 23.6298C179.198 23.3708 179.386 23.039 179.386 22.6344C179.386 22.1974 179.157 21.8737 178.699 21.6633C178.257 21.4367 177.545 21.1939 176.562 20.9349C175.547 20.6922 174.712 20.4413 174.057 20.1823C173.419 19.9234 172.862 19.5268 172.387 18.9927C171.929 18.4586 171.7 17.7384 171.7 16.832C171.7 16.0875 171.913 15.4077 172.338 14.7927C172.78 14.1776 173.402 13.6921 174.205 13.336C175.023 12.9799 175.981 12.8019 177.078 12.8019C178.699 12.8019 179.992 13.2065 180.958 14.0158C181.924 14.8088 182.456 15.8852 182.555 17.2447H179.264C179.215 16.7106 178.985 16.2898 178.576 15.9823C178.183 15.6586 177.651 15.4967 176.98 15.4967C176.358 15.4967 175.875 15.61 175.531 15.8366C175.203 16.0632 175.04 16.3788 175.04 16.7834C175.04 17.2366 175.269 17.5846 175.727 17.8274C176.186 18.054 176.898 18.2887 177.864 18.5314C178.846 18.7742 179.657 19.0251 180.295 19.284C180.934 19.543 181.482 19.9476 181.941 20.4979C182.415 21.032 182.661 21.7442 182.677 22.6344C182.677 23.4113 182.456 24.1072 182.014 24.7223C181.589 25.3373 180.966 25.8229 180.148 26.1789C179.346 26.5188 178.404 26.6888 177.324 26.6888Z" fill="white"/>
<path d="M156.063 19.6968C156.063 18.3372 156.333 17.1314 156.873 16.0794C157.43 15.0273 158.175 14.2181 159.108 13.6516C160.057 13.0851 161.113 12.8019 162.276 12.8019C163.291 12.8019 164.175 13.0042 164.928 13.4088C165.698 13.8135 166.312 14.3233 166.77 14.9383V13.0204H170.233V26.4703H166.77V24.5038C166.328 25.135 165.714 25.661 164.928 26.0818C164.159 26.4865 163.266 26.6888 162.251 26.6888C161.105 26.6888 160.057 26.3974 159.108 25.8148C158.175 25.2321 157.43 24.4148 156.873 23.3627C156.333 22.2945 156.063 21.0725 156.063 19.6968ZM166.77 19.7453C166.77 18.9199 166.606 18.2158 166.279 17.6332C165.951 17.0343 165.509 16.5811 164.953 16.2736C164.396 15.9499 163.798 15.788 163.16 15.788C162.521 15.788 161.932 15.9418 161.392 16.2493C160.851 16.5568 160.409 17.01 160.066 17.6089C159.738 18.1915 159.574 18.8875 159.574 19.6968C159.574 20.506 159.738 21.2182 160.066 21.8332C160.409 22.4321 160.851 22.8933 161.392 23.217C161.948 23.5408 162.538 23.7026 163.16 23.7026C163.798 23.7026 164.396 23.5488 164.953 23.2413C165.509 22.9176 165.951 22.4644 166.279 21.8818C166.606 21.2829 166.77 20.5708 166.77 19.7453Z" fill="white"/>
<path d="M148.788 12.2677V16.5163H154.559V19.2111H148.788V23.7025H155.296V26.4702H145.35V9.5H155.296V12.2677H148.788Z" fill="white"/>
<path d="M136.927 15.8122V22.3187C136.927 22.7718 137.033 23.1036 137.246 23.314C137.475 23.5083 137.852 23.6054 138.376 23.6054H139.972V26.4702H137.811C134.913 26.4702 133.464 25.0782 133.464 22.2944V15.8122H131.843V13.0203H133.464V9.69421H136.927V13.0203H139.972V15.8122H136.927Z" fill="white"/>
<path d="M131 9.52429V26.4702H127.562V9.52429H131Z" fill="white"/>
<path d="M122.804 13.0203L114.381 32.8309H110.721L113.668 26.1303L108.216 13.0203H112.072L115.584 22.4158L119.145 13.0203H122.804Z" fill="white"/>
<path d="M108.752 19.454C108.752 19.9395 108.719 20.3765 108.654 20.765H98.7077C98.7896 21.7361 99.1334 22.4968 99.7392 23.0471C100.345 23.5974 101.09 23.8725 101.974 23.8725C103.251 23.8725 104.16 23.3303 104.7 22.2459H108.408C108.015 23.5408 107.262 24.609 106.149 25.4506C105.036 26.276 103.669 26.6888 102.048 26.6888C100.738 26.6888 99.5591 26.4055 98.5113 25.839C97.4798 25.2564 96.6694 24.439 96.08 23.387C95.507 22.335 95.2205 21.1211 95.2205 19.7453C95.2205 18.3534 95.507 17.1314 96.08 16.0794C96.653 15.0273 97.4553 14.2181 98.4867 13.6516C99.5182 13.0851 100.705 12.8019 102.048 12.8019C103.341 12.8019 104.495 13.077 105.51 13.6273C106.542 14.1776 107.336 14.9626 107.893 15.9823C108.466 16.9858 108.752 18.143 108.752 19.454ZM105.191 18.4829C105.175 17.6089 104.855 16.9129 104.233 16.395C103.611 15.8609 102.85 15.5938 101.949 15.5938C101.098 15.5938 100.378 15.8528 99.7883 16.3707C99.2153 16.8725 98.8633 17.5765 98.7323 18.4829H105.191Z" fill="white"/>
<path d="M88.8812 12.826C90.502 12.826 91.8118 13.3359 92.8105 14.3556C93.8092 15.359 94.3086 16.7671 94.3086 18.5799V26.4702H90.8704V19.0412C90.8704 17.9729 90.6003 17.1556 90.06 16.5891C89.5197 16.0064 88.7829 15.7151 87.8497 15.7151C86.9001 15.7151 86.147 16.0064 85.5904 16.5891C85.0501 17.1556 84.78 17.9729 84.78 19.0412V26.4702H81.3418V13.0203H84.78V14.6954C85.2384 14.1128 85.8196 13.6596 86.5236 13.3359C87.244 12.996 88.0298 12.826 88.8812 12.826Z" fill="white"/>
<path d="M73.1959 26.6888C71.8861 26.6888 70.7073 26.4055 69.6595 25.839C68.6117 25.2564 67.7849 24.439 67.1791 23.387C66.5897 22.335 66.295 21.1211 66.295 19.7453C66.295 18.3696 66.5979 17.1557 67.2037 16.1037C67.8258 15.0516 68.669 14.2424 69.7332 13.6759C70.7974 13.0932 71.9844 12.8019 73.2941 12.8019C74.6039 12.8019 75.7909 13.0932 76.8551 13.6759C77.9193 14.2424 78.7543 15.0516 79.36 16.1037C79.9822 17.1557 80.2933 18.3696 80.2933 19.7453C80.2933 21.1211 79.974 22.335 79.3355 23.387C78.7133 24.439 77.862 25.2564 76.7814 25.839C75.7172 26.4055 74.5221 26.6888 73.1959 26.6888ZM73.1959 23.7269C73.8181 23.7269 74.3993 23.5812 74.9396 23.2899C75.4962 22.9824 75.9383 22.5292 76.2657 21.9303C76.5931 21.3315 76.7569 20.6031 76.7569 19.7453C76.7569 18.4667 76.4131 17.4875 75.7254 16.8077C75.0542 16.1117 74.2274 15.7638 73.245 15.7638C72.2627 15.7638 71.4359 16.1117 70.7646 16.8077C70.1098 17.4875 69.7823 18.4667 69.7823 19.7453C69.7823 21.024 70.1016 22.0113 70.7401 22.7072C71.395 23.387 72.2136 23.7269 73.1959 23.7269Z" fill="white"/>
<path d="M65.2289 9.52429V26.4702H61.7907V15.4481L57.1983 26.4702H54.5952L49.9782 15.4481V26.4702H46.54V9.52429H50.4448L55.8967 22.1245L61.3487 9.52429H65.2289Z" fill="white"/>
<path opacity="0.56" fill-rule="evenodd" clip-rule="evenodd" d="M15.0414 0C27.9635 0 38.4391 10.3559 38.4391 23.1304H15.0414V0Z" fill="white"/>
<path opacity="0.56" fill-rule="evenodd" clip-rule="evenodd" d="M0 14.8696C0 27.6442 10.4755 38.0001 23.3977 38.0001V14.8696H0Z" fill="white"/>
</svg>
