<svg width="43" height="42" viewBox="0 0 43 42" fill="none" xmlns="http://www.w3.org/2000/svg">
<g id="trending-up-outline">
<path id="Vector (Stroke)" fill-rule="evenodd" clip-rule="evenodd" d="M38.7374 11.0126C39.4209 11.696 39.4209 12.804 38.7374 13.4874L24.7374 27.4874C24.054 28.1709 22.946 28.1709 22.2626 27.4874L16.5 21.7249L7.23744 30.9874C6.55402 31.6709 5.44598 31.6709 4.76256 30.9874C4.07915 30.304 4.07915 29.196 4.76256 28.5126L15.2626 18.0126C15.946 17.3291 17.054 17.3291 17.7374 18.0126L23.5 23.7751L36.2626 11.0126C36.946 10.3291 38.054 10.3291 38.7374 11.0126Z" fill="#24C456"/>
<path id="Vector (Stroke)_2" fill-rule="evenodd" clip-rule="evenodd" d="M23.5 12.25C23.5 11.2835 24.2835 10.5 25.25 10.5H37.5C38.4665 10.5 39.25 11.2835 39.25 12.25V24.5C39.25 25.4665 38.4665 26.25 37.5 26.25C36.5335 26.25 35.75 25.4665 35.75 24.5V14H25.25C24.2835 14 23.5 13.2165 23.5 12.25Z" fill="#24C456"/>
</g>
</svg>
