<svg width="28" height="28" viewBox="0 0 28 28" fill="none" xmlns="http://www.w3.org/2000/svg">
<g id="user-outline">
<path id="Vector (Stroke)" fill-rule="evenodd" clip-rule="evenodd" d="M9.8752 4.04192C10.9692 2.94796 12.4529 2.33337 14 2.33337C15.5471 2.33337 17.0308 2.94796 18.1248 4.04192C19.2187 5.13588 19.8333 6.61961 19.8333 8.16671C19.8333 9.7138 19.2187 11.1975 18.1248 12.2915C17.0308 13.3855 15.5471 14 14 14C12.4529 14 10.9692 13.3855 9.8752 12.2915C8.78124 11.1975 8.16666 9.7138 8.16666 8.16671C8.16666 6.61961 8.78124 5.13588 9.8752 4.04192ZM14 4.66671C13.0717 4.66671 12.1815 5.03546 11.5251 5.69183C10.8687 6.34821 10.5 7.23845 10.5 8.16671C10.5 9.09497 10.8687 9.9852 11.5251 10.6416C12.1815 11.298 13.0717 11.6667 14 11.6667C14.9282 11.6667 15.8185 11.298 16.4749 10.6416C17.1312 9.9852 17.5 9.09497 17.5 8.16671C17.5 7.23845 17.1312 6.34821 16.4749 5.69183C15.8185 5.03546 14.9282 4.66671 14 4.66671Z" fill="#E8FCF0"/>
<path id="Vector (Stroke)_2" fill-rule="evenodd" clip-rule="evenodd" d="M11.6667 18.6666C10.7384 18.6666 9.84818 19.0354 9.1918 19.6918C8.53543 20.3482 8.16668 21.2384 8.16668 22.1666V24.5C8.16668 25.1443 7.64434 25.6666 7.00001 25.6666C6.35568 25.6666 5.83334 25.1443 5.83334 24.5V22.1666C5.83334 20.6195 6.44792 19.1358 7.54189 18.0419C8.63585 16.9479 10.1196 16.3333 11.6667 16.3333H16.3333C17.8804 16.3333 19.3642 16.9479 20.4581 18.0419C21.5521 19.1358 22.1667 20.6195 22.1667 22.1666V24.5C22.1667 25.1443 21.6443 25.6666 21 25.6666C20.3557 25.6666 19.8333 25.1443 19.8333 24.5V22.1666C19.8333 21.2384 19.4646 20.3482 18.8082 19.6918C18.1518 19.0354 17.2616 18.6666 16.3333 18.6666H11.6667Z" fill="#E8FCF0"/>
</g>
</svg>
